<svg width="182" height="182" viewBox="0 0 182 182" fill="none" xmlns="http://www.w3.org/2000/svg">
<path d="M125.984 162H104.031V70.125C104.031 63.6146 105.151 58.1719 107.391 53.7969C109.63 49.4219 112.781 46.0885 116.844 43.7969C120.958 41.5052 125.828 40.3594 131.453 40.3594C133.276 40.3594 134.995 40.5156 136.609 40.8281C138.276 41.0885 139.891 41.4531 141.453 41.9219L141.219 59.3438C140.542 59.1354 139.734 58.9792 138.797 58.875C137.859 58.7708 136.87 58.7188 135.828 58.7188C133.745 58.7188 131.948 59.1615 130.438 60.0469C128.979 60.9323 127.859 62.2083 127.078 63.875C126.349 65.5417 125.984 67.625 125.984 70.125V162ZM139.188 77.4688V93.9531H93.7188V77.4688H139.188Z" fill="#0F0F0F"/>
<path d="M142 10H40C23.4315 10 10 23.4315 10 40V142C10 158.569 23.4315 172 40 172H142C158.569 172 172 158.569 172 142V40C172 23.4315 158.569 10 142 10Z" stroke="#0F0F0F" stroke-width="20"/>
</svg>
