<svg width="182" height="182" viewBox="0 0 182 182" fill="none" xmlns="http://www.w3.org/2000/svg">
<circle cx="138.5" cy="43.5" r="11.5" fill="#0F0F0F"/>
<path d="M91 129.5C112.263 129.5 129.5 112.263 129.5 91C129.5 69.737 112.263 52.5 91 52.5C69.737 52.5 52.5 69.737 52.5 91C52.5 112.263 69.737 129.5 91 129.5Z" stroke="#0F0F0F" stroke-width="15"/>
<path d="M142 10H40C23.4315 10 10 23.4315 10 40V142C10 158.569 23.4315 172 40 172H142C158.569 172 172 158.569 172 142V40C172 23.4315 158.569 10 142 10Z" stroke="#0F0F0F" stroke-width="20"/>
</svg>
